<svg xmlns="http://www.w3.org/2000/svg" viewBox="0 0 512.12 432.04"><defs><style>.cls-1{fill:#00599d;}.cls-2{font-size:85px;fill:#9c1f2e;font-family:FashionFetish, Fashion Fetish;}</style></defs><g id="Layer_2" data-name="Layer 2"><g id="Layer_1-2" data-name="Layer 1"><path class="cls-1" d="M358.88,0c1.09.29,2.18.63,3.29.86,18.44,3.84,31.17,19,31.36,37.8.2,19.61.06,39.22.06,58.84q0,69,0,138a38.07,38.07,0,0,1-8.46,24.78C377.2,270.07,366.82,275,354.21,275q-85.62,0-171.24,0c-8.31,0-16.62,0-24.92,0-22.41-.05-39.55-17.21-39.55-39.65q0-97.38,0-194.75c0-20.22,12.4-35.8,31.61-39.82,1.12-.23,2.22-.53,3.33-.79ZM255.5,228.21c19-.12,34.24-15.26,34.16-33.87a34.21,34.21,0,0,0-34.41-34.19c-18.5.15-33.92,15.6-33.79,33.86C221.59,213.15,236.69,228.32,255.5,228.21ZM253.62,46.79c-3.6.26-9.68.44-15.7,1.14-24.24,2.82-46.61,10.73-66.54,25a105.08,105.08,0,0,0-22.64,21.87,7,7,0,0,0,1.51,10.33,7.21,7.21,0,0,0,10-1.71c12.14-16.63,28.6-27.17,47.83-33.7,18.89-6.41,38.35-8.28,58.19-7a139.46,139.46,0,0,1,46.46,10.68c15.61,6.7,29.05,16.22,39.15,30.11a7,7,0,0,0,10.19,1.25c3.44-2.64,3.92-6.58,1.18-10.13a108.16,108.16,0,0,0-26.09-24.19C312.62,54.17,285.34,47.11,253.62,46.79ZM178,157.05a21.44,21.44,0,1,0,.15-42.88c-11.57-.09-21.42,9.69-21.54,21.38A21.63,21.63,0,0,0,178,157.05Zm155.55,0a21.44,21.44,0,1,0,.11-42.88c-11.65-.15-21.5,9.79-21.49,21.65A21.49,21.49,0,0,0,333.59,157Z"/><path d="M317,324.35a5.6,5.6,0,0,1-5.85,5.74,5.76,5.76,0,0,1-5.67-5.74,5.86,5.86,0,0,1,5.67-5.79A5.74,5.74,0,0,1,317,324.35Z"/><text class="cls-2" transform="translate(0 397.02)">adspoosh</text></g></g></svg>